<?xml version="1.0" encoding="utf-8"?>
<!-- Generator: Adobe Illustrator 23.0.0, SVG Export Plug-In . SVG Version: 6.00 Build 0)  -->
<svg version="1.1" id="Layer_1" xmlns="http://www.w3.org/2000/svg" xmlns:xlink="http://www.w3.org/1999/xlink" x="0px" y="0px"
	 viewBox="0 0 1.57 2.35" style="enable-background:new 0 0 1.57 2.35;" xml:space="preserve">
<style type="text/css">
	.st0{fill:#CAA967;}
</style>
<g>
	<g>
		<path class="st0" d="M1.16,0H0.42v0.49h0.75V0z M0.91,0.32H0.83V0.4h-0.1V0.32H0.67v-0.1h0.07V0.15h0.1v0.07h0.08V0.32z"/>
		<path class="st0" d="M1.13,1.46l-0.34,0.5l-0.34-0.5C0.2,1.53,0,1.65,0,1.85v0.5h1.57v-0.5C1.57,1.65,1.38,1.53,1.13,1.46z"/>
		<path class="st0" d="M1.23,0.94V0.81c0-0.1-0.03-0.19-0.08-0.26H0.42C0.37,0.62,0.35,0.71,0.35,0.81v0.12
			C0.35,1.53,1.23,1.53,1.23,0.94z M0.47,0.84c0-0.04,0.25-0.04,0.25,0h0.12c0-0.04,0.25-0.04,0.25,0v0.12c0,0.06-0.25,0.06-0.25,0
			V0.89H0.72v0.07c0,0.06-0.25,0.06-0.25,0V0.84z"/>
	</g>
</g>
</svg>
