<?xml version="1.0" encoding="utf-8"?>
<!-- Generator: Adobe Illustrator 23.0.0, SVG Export Plug-In . SVG Version: 6.00 Build 0)  -->
<svg version="1.1" id="Layer_1" xmlns="http://www.w3.org/2000/svg" xmlns:xlink="http://www.w3.org/1999/xlink" x="0px" y="0px"
	 viewBox="0 0 1.57 2.35" style="enable-background:new 0 0 1.57 2.35;" xml:space="preserve">
<style type="text/css">
	.st0{fill:#CAA967;}
</style>
<g>
	<g>
		<path class="st0" d="M1.54,2.05c0,0-0.17-0.39-0.3-0.58c-0.14-0.18-0.3-0.16-0.4-0.16c-0.1,0-0.19,0-0.28,0
			c-0.09,0-0.14,0.23,0.02,0.23c0.16,0,0.27,0.09,0.3,0.13c-0.22,0-0.46-0.04-0.46-0.04S0.37,1.6,0.28,1.47
			C0.18,1.35,0.09,1.32,0,1.33c0.14,0.32,0.27,0.55,0.35,0.59C0.43,1.95,0.9,2.05,0.9,2.05l0.26,0.3L1.54,2.05z"/>
		<path class="st0" d="M0.8,0.36c-0.05-0.18,0.07-0.23,0.08-0.1C0.98,0.27,0.94,0.43,0.8,0.36L0.8,0.36z M0.35,0.5
			c0.05-0.18-0.07-0.23-0.08-0.1C0.17,0.41,0.22,0.57,0.35,0.5L0.35,0.5z M0.62,0.38c0.23-0.26,0.05-0.52-0.06-0.3
			C0.37-0.02,0.33,0.33,0.62,0.38L0.62,0.38z M0.9,1.04C0.6,0.69,0.83,0.34,0.98,0.65C1.22,0.5,1.28,0.97,0.9,1.04L0.9,1.04z
			 M0.48,1.27c0.44-0.52,0.09-1.04-0.13-0.59C-0.01,0.47-0.09,1.17,0.48,1.27L0.48,1.27z"/>
	</g>
</g>
</svg>
