<?xml version="1.0" encoding="utf-8"?>
<!-- Generator: Adobe Illustrator 23.0.0, SVG Export Plug-In . SVG Version: 6.00 Build 0)  -->
<svg version="1.1" id="Layer_1" xmlns="http://www.w3.org/2000/svg" xmlns:xlink="http://www.w3.org/1999/xlink" x="0px" y="0px"
	 viewBox="0 0 1.57 2.35" style="enable-background:new 0 0 1.57 2.35;" xml:space="preserve">
<style type="text/css">
	.st0{fill:#CAA967;}
</style>
<g>
	<g>
		<path class="st0" d="M1.57,0.81c0-0.09-0.02-0.18-0.05-0.27C1.41,0.25,1.21,0.07,0.91,0.01C0.88,0.01,0.86,0,0.83,0H0.75
			C0.74,0,0.74,0,0.73,0c-0.03,0-0.05,0-0.08,0.01C0.42,0.06,0.24,0.19,0.11,0.41C0,0.61-0.03,0.82,0.04,1.05
			C0.08,1.18,0.14,1.3,0.2,1.42c0.17,0.33,0.37,0.63,0.58,0.92c0,0,0,0,0.01,0.01c0.03-0.05,0.07-0.09,0.1-0.14
			c0.16-0.24,0.32-0.48,0.46-0.73c0.07-0.14,0.14-0.27,0.19-0.42C1.56,0.98,1.58,0.89,1.57,0.81z M0.79,1.12
			c-0.17,0-0.31-0.14-0.31-0.32c0-0.18,0.14-0.32,0.31-0.32S1.09,0.62,1.09,0.8C1.09,0.97,0.96,1.12,0.79,1.12z"/>
	</g>
</g>
</svg>
