<?xml version="1.0" encoding="utf-8"?>
<!-- Generator: Adobe Illustrator 23.0.0, SVG Export Plug-In . SVG Version: 6.00 Build 0)  -->
<svg version="1.1" id="Layer_1" xmlns="http://www.w3.org/2000/svg" xmlns:xlink="http://www.w3.org/1999/xlink" x="0px" y="0px"
	 viewBox="0 0 1.57 2.35" style="enable-background:new 0 0 1.57 2.35;" xml:space="preserve">
<style type="text/css">
	.st0{fill:#CAA967;}
</style>
<g>
	<g>
		<path class="st0" d="M0.86,0.87v0.17c0,0.22-0.17,0.41-0.38,0.44l-0.02,0v0.11H0.39V1.47l-0.02,0C0.17,1.44,0,1.25,0,1.03V0.87
			c0.12-0.07,0.21-0.04,0.32,0C0.46,0.92,0.62,0.97,0.86,0.87z"/>
		<path class="st0" d="M0.78,0.32H0.59V0.16C0.59,0.05,0.51,0,0.43,0S0.27,0.05,0.27,0.16v0.16H0.09C0.04,0.32,0,0.36,0,0.4v0.42
			C0.05,0.8,0.1,0.79,0.14,0.79c0.07,0,0.13,0.02,0.19,0.04c0.13,0.04,0.28,0.09,0.53-0.01V0.4C0.86,0.36,0.82,0.32,0.78,0.32z
			 M0.43,0.25c-0.05,0-0.09-0.04-0.09-0.09c0-0.05,0.04-0.09,0.09-0.09c0.05,0,0.09,0.04,0.09,0.09C0.52,0.21,0.48,0.25,0.43,0.25z"
			/>
		<path class="st0" d="M1.57,0.99v0.74H1.53V0.99c0-0.07-0.06-0.13-0.13-0.13H1.21c-0.07,0-0.13,0.06-0.13,0.13v1.18
			c0,0.1-0.08,0.18-0.17,0.18H0.58c-0.1,0-0.17-0.08-0.17-0.18V1.6h0.04v0.57c0,0.07,0.06,0.13,0.13,0.13h0.33
			c0.07,0,0.13-0.06,0.13-0.13V0.99c0-0.1,0.08-0.18,0.17-0.18H1.4C1.49,0.82,1.57,0.9,1.57,0.99z"/>
	</g>
</g>
</svg>
