<svg xmlns="http://www.w3.org/2000/svg" viewBox="0 0 51.51 51.5"><defs><style>.cls-1{fill:#a7792b;}.cls-2{fill:#fff;}</style></defs><title>Next</title><g id="Layer_2" data-name="Layer 2"><g id="Layer_1-2" data-name="Layer 1"><path class="cls-1" d="M51.36,23A25.14,25.14,0,0,0,46.7,10.79,25.56,25.56,0,0,0,33.43,1.16,25,25,0,0,0,27.25,0c-.11,0-.23,0-.34,0H24.6c-.53.05-1.06.09-1.59.15a24.54,24.54,0,0,0-9.08,2.74,25.59,25.59,0,0,0-12.36,14A24.27,24.27,0,0,0,.05,24.31a2.33,2.33,0,0,1,0,.28v2.32c.05.52.1,1.05.16,1.58A25.07,25.07,0,0,0,4.48,40.23a25.62,25.62,0,0,0,12.39,9.69,25,25,0,0,0,7.4,1.53l.33,0h2.31l1.59-.15a25.07,25.07,0,0,0,12.4-4.8,25.46,25.46,0,0,0,9.78-14.34,24.21,24.21,0,0,0,.78-5c0-.1,0-.2,0-.3V24.59ZM25.7,49A23.29,23.29,0,1,1,49.05,25.76,23.31,23.31,0,0,1,25.7,49Z"/><path class="cls-2" d="M49.05,25.76A23.3,23.3,0,1,1,25.82,2.46,23.3,23.3,0,0,1,49.05,25.76Z"/><path class="cls-1" d="M23.67,15.63C27,18.84,29.75,22,33.19,25.27a.64.64,0,0,1,0,.94c-3.43,3-6.16,6-9.51,9.08a.64.64,0,0,1-1.07-.47V16.09A.64.64,0,0,1,23.67,15.63Z"/></g></g></svg>