<svg xmlns="http://www.w3.org/2000/svg" viewBox="0 0 51.51 51.5"><defs><style>.cls-1{fill:#a7792b;}.cls-2{fill:#fff;}</style></defs><title>Pre</title><g id="Layer_2" data-name="Layer 2"><g id="Layer_1-2" data-name="Layer 1"><path class="cls-1" d="M.15,23A25.14,25.14,0,0,1,4.81,10.79,25.56,25.56,0,0,1,18.08,1.16,25,25,0,0,1,24.26,0c.11,0,.23,0,.34,0h2.31L28.5.15a24.54,24.54,0,0,1,9.08,2.74,25.59,25.59,0,0,1,12.36,14,24.27,24.27,0,0,1,1.52,7.39,2.33,2.33,0,0,0,0,.28v2.32c0,.52-.1,1.05-.16,1.58A25.07,25.07,0,0,1,47,40.23a25.62,25.62,0,0,1-12.39,9.69,25,25,0,0,1-7.4,1.53l-.33,0H24.6L23,51.35a25.07,25.07,0,0,1-12.4-4.8A25.46,25.46,0,0,1,.83,32.21a24.21,24.21,0,0,1-.78-5c0-.1,0-.2,0-.3V24.59ZM25.81,49A23.29,23.29,0,1,0,2.46,25.76,23.31,23.31,0,0,0,25.81,49Z"/><path class="cls-2" d="M2.46,25.76A23.3,23.3,0,1,0,25.69,2.46,23.3,23.3,0,0,0,2.46,25.76Z"/><path class="cls-1" d="M27.84,15.63c-3.35,3.21-6.08,6.41-9.52,9.64a.64.64,0,0,0,0,.94c3.43,3,6.16,6,9.51,9.08a.64.64,0,0,0,1.07-.47V16.09A.64.64,0,0,0,27.84,15.63Z"/></g></g></svg>